<svg aria-hidden="true" style="position: absolute; width: 0px; height: 0px; overflow-x: hidden; overflow-y: hidden;" version="1.1" xmlns="http://www.w3.org/2000/svg">
  <defs>
    <symbol id="icon-twitter" viewBox="0 0 32 32">
      <path d="M32 6.078c-1.19.522-2.458.868-3.78 1.036a6.523 6.523 0 0 0 2.886-3.626 13.11 13.11 0 0 1-4.16 1.588A6.574 6.574 0 0 0 22.154 3c-3.632 0-6.556 2.948-6.556 6.562 0 .52.044 1.02.152 1.496-5.454-.266-10.28-2.88-13.522-6.862a6.605 6.605 0 0 0-.898 3.316 6.57 6.57 0 0 0 2.914 5.452 6.48 6.48 0 0 1-2.964-.808v.072c0 3.188 2.274 5.836 5.256 6.446a6.548 6.548 0 0 1-1.72.216 5.8 5.8 0 0 1-1.242-.112c.85 2.598 3.262 4.508 6.13 4.57a13.182 13.182 0 0 1-8.134 2.798c-.538 0-1.054-.024-1.57-.09A18.47 18.47 0 0 0 10.064 29c12.072 0 18.672-10 18.672-18.668 0-.29-.01-.57-.024-.848A13.087 13.087 0 0 0 32 6.078z"/>
    </symbol>
    <symbol id="icon-facebook" viewBox="0 0 32 32">
      <path d="M21.33 5.313h2.92V.225C23.746.155 22.013 0 19.994 0c-4.212 0-7.097 2.65-7.097 7.52V12H8.25v5.688h4.647V32h5.7V17.69h4.46l.707-5.69h-5.17V8.083c.002-1.644.445-2.77 2.736-2.77z"/>
    </symbol>
    <symbol id="icon-linkedin" viewBox="0 0 32 32">
      <path d="M31.992 32H32V20.262c0-5.74-1.236-10.164-7.948-10.164-3.227 0-5.392 1.77-6.276 3.448h-.093v-2.913H11.32V32h6.626V21.42c0-2.785.528-5.48 3.977-5.48 3.4 0 3.45 3.18 3.45 5.658v10.4h6.62z"/>
      <path d="M.528 10.636h6.635V32H.528V10.636z"/>
      <path d="M3.843 0C1.723 0 0 1.72 0 3.843s1.72 3.88 3.843 3.88c2.12 0 3.843-1.758 3.843-3.88A3.846 3.846 0 0 0 3.843 0z"/>
    </symbol>
    <symbol id="icon-instagram" viewBox="0 0 32 32">
      <path d="M31.97 9.408c-.076-1.7-.35-2.87-.745-3.882a7.803 7.803 0 0 0-1.85-2.838A7.867 7.867 0 0 0 26.543.844C25.523.45 24.36.174 22.66.1c-1.712-.08-2.256-.1-6.6-.1s-4.888.02-6.595.094c-1.7.075-2.87.35-3.882.744a7.803 7.803 0 0 0-2.838 1.85A7.867 7.867 0 0 0 .9 5.52C.508 6.54.233 7.702.158 9.402c-.08 1.713-.1 2.257-.1 6.6s.02 4.89.094 6.596c.076 1.7.35 2.87.745 3.882a7.895 7.895 0 0 0 1.85 2.838c.8.813 1.77 1.444 2.832 1.844 1.02.394 2.182.67 3.882.744 1.705.075 2.25.094 6.594.094s4.888-.02 6.595-.094c1.7-.075 2.868-.35 3.88-.744a8.18 8.18 0 0 0 4.683-4.682c.394-1.02.67-2.182.744-3.882.075-1.707.094-2.25.094-6.595s-.005-4.888-.08-6.595zm-2.883 13.065c-.07 1.563-.33 2.407-.55 2.97A5.31 5.31 0 0 1 25.5 28.48c-.564.22-1.414.48-2.97.55-1.688.075-2.194.094-6.464.094s-4.782-.02-6.464-.094c-1.563-.07-2.407-.33-2.97-.55a4.926 4.926 0 0 1-1.837-1.194A4.974 4.974 0 0 1 3.6 25.448c-.218-.563-.48-1.413-.55-2.97-.074-1.687-.093-2.193-.093-6.463s.02-4.782.094-6.464c.07-1.562.332-2.406.55-2.968a4.868 4.868 0 0 1 1.2-1.838A4.974 4.974 0 0 1 6.64 3.55C7.2 3.33 8.05 3.07 9.607 3c1.688-.075 2.194-.094 6.464-.094 4.276 0 4.782.02 6.464.094 1.563.07 2.407.33 2.97.55a4.914 4.914 0 0 1 1.837 1.194c.53.52.938 1.144 1.194 1.838.22.563.48 1.413.55 2.97.075 1.687.094 2.193.094 6.463s-.018 4.77-.093 6.458z"/>
      <path d="M16.06 7.783c-4.54 0-8.22 3.682-8.22 8.22s3.68 8.22 8.22 8.22c4.537 0 8.22-3.682 8.22-8.22s-3.683-8.22-8.22-8.22zm0 13.552a5.333 5.333 0 0 1 0-10.664 5.333 5.333 0 0 1 0 10.665z"/>
      <path d="M26.524 7.458a1.92 1.92 0 1 1-3.838 0 1.92 1.92 0 0 1 3.838 0z"/>
    </symbol>
    <symbol id="icon-astronaut" viewBox="0 0 32 32">
      <path fill="#4d5ae5" style="" d="M31.974 4.524a.534.534 0 0 0-.43-.363l-1.91-.277-.855-1.73c-.18-.366-.778-.366-.957 0l-.855 1.73-1.91.278a.535.535 0 0 0-.296.91l1.383 1.35-.326 1.902a.53.53 0 0 0 .774.562l1.708-.9 1.71.9a.536.536 0 0 0 .774-.563L30.46 6.42l1.383-1.348a.536.536 0 0 0 .135-.547zM29.51 5.85a.534.534 0 0 0-.152.473l.19 1.114-1-.526a.533.533 0 0 0-.497 0l-1 .527.19-1.114a.534.534 0 0 0-.152-.472l-.81-.788 1.12-.163a.532.532 0 0 0 .4-.293l.5-1.013.5 1.013a.535.535 0 0 0 .403.292l1.12.162-.81.79z"/>
      <path fill="#4d5ae5" style="" d="M26.133 20.522h-1.067v1.067h1.067V20.52z"/>
      <path fill="#4d5ae5" style="" d="M26.133 22.656h-1.067v1.067h1.067v-1.067z"/>
      <path fill="#4d5ae5" style="" d="M27.2 21.59h-1.067v1.066H27.2V21.59z"/>
      <path fill="#4d5ae5" style="" d="M25.067 21.59H24v1.066h1.067V21.59z"/>
      <path fill="#4d5ae5" style="" d="M22.4 26.39h-1.067v1.066H22.4V26.39z"/>
      <path fill="#4d5ae5" style="" d="M22.4 28.522h-1.067v1.067H22.4V28.52z"/>
      <path fill="#4d5ae5" style="" d="M23.467 27.456H22.4v1.067h1.067v-1.067z"/>
      <path fill="#4d5ae5" style="" d="M21.333 27.456h-1.067v1.067h1.067v-1.067z"/>
      <path fill="#4d5ae5" style="" d="M16 24.256h-1.067v1.067H16v-1.067z"/>
      <path fill="#4d5ae5" style="" d="M16 26.39h-1.067v1.066H16V26.39z"/>
      <path fill="#4d5ae5" style="" d="M17.067 25.322H16v1.067h1.067V25.32z"/>
      <path fill="#4d5ae5" style="" d="M14.933 25.322h-1.067v1.067h1.067V25.32z"/>
      <path fill="#4d5ae5" style="" d="M5.867 6.122H4.8V7.19h1.067V6.12z"/>
      <path fill="#4d5ae5" style="" d="M5.867 8.255H4.8v1.067h1.067V8.255z"/>
      <path fill="#4d5ae5" style="" d="M6.933 7.19H5.866v1.066h1.067V7.19z"/>
      <path fill="#4d5ae5" style="" d="M4.8 7.19H3.733v1.066H4.8V7.19z"/>
      <path fill="#2e2f42" style="" d="M24.715 14.16a1.775 1.775 0 0 0-1.188-.706 1.778 1.778 0 0 0-1.34.352l-1.252.96-1.898 1.417-1.358-.54c2.42-1.087 4.113-3.51 4.113-6.32 0-3.824-3.123-6.934-6.96-6.934S7.87 5.5 7.87 9.32a6.86 6.86 0 0 0 1.12 3.758l-2.763-.024h-.005c-.01 0-.015.004-.023.005a.515.515 0 0 0-.156.032l-.038.013c-.006.003-.013.003-.02.006l-3.232 1.597-1.894.912a.397.397 0 0 0-.063.034A1.78 1.78 0 0 0 .2 17.95c.22.428.594.744 1.055.888a1.776 1.776 0 0 0 1.378-.128l1.388-.737 2.265-1.17 1.357-.007L2.2 22.21c0 .002 0 .002-.002.002l-1.34 1.333c-.315.315-.49.732-.49 1.178s.175.863.49 1.18c.326.322.753.484 1.18.484s.854-.162 1.18-.485l1.314-1.31 1.74-1.3.902.898-1.762 1.754H5.41L4.07 27.28c-.315.315-.49.732-.49 1.178s.175.863.49 1.18c.326.322.754.484 1.18.484s.856-.162 1.18-.485l3.483-3.467v-.002l1.01-1-.003-.004c.006-.006.015-.01.022-.015l5.166-5.658 3.47.493a.52.52 0 0 0 .262-.033c.02-.006.034-.015.05-.023.02-.01.04-.015.06-.027l3.212-2.133c.012-.008.018-.02.03-.03s.028-.013.04-.025l1.27-1.19a1.78 1.78 0 0 0 .213-2.363zM2.13 17.77a.714.714 0 0 1-.558.052.717.717 0 0 1-.213-1.26l1.313-.632.45 1.313-.993.527zm3.498-1.828-1.548.8-.44-1.283 2.028-1.002-.04 1.484zm15.1-6.62a5.79 5.79 0 0 1-.6 2.56l-4.18-1.9a1.863 1.863 0 0 0-.79-1.388l1.465-4.86c2.378.756 4.105 2.974 4.105 5.588zm-11.79 0c0-3.235 2.644-5.867 5.894-5.867.253 0 .5.02.745.052L14.145 8.26c-.02 0-.037-.005-.057-.005-1.033 0-1.873.837-1.873 1.867s.84 1.867 1.873 1.867c.694 0 1.294-.384 1.618-.946l3.862 1.755a5.894 5.894 0 0 1-4.737 2.39c-3.25 0-5.893-2.633-5.893-5.868zm5.956.8c0 .44-.362.8-.806.8s-.806-.36-.806-.8.362-.8.806-.8.806.36.806.8zM2.464 25.146a.608.608 0 0 1-.853 0 .592.592 0 0 1 0-.843l.963-.958.85.848-.958.955zM5.68 28.88a.608.608 0 0 1-.856 0 .592.592 0 0 1 0-.843l.963-.96.852.85-.96.954zm3.48-3.47-.002.002-1.765 1.76-.852-.848 1.764-1.755.002-.002c.04-.04.065-.088.09-.135.007-.014.02-.026.026-.04.017-.04.02-.085.026-.13.003-.024.014-.046.014-.072 0-.035-.013-.07-.02-.105-.006-.032-.006-.065-.02-.095a.55.55 0 0 0-.09-.138c-.01-.012-.014-.027-.025-.038s-.002-.002-.002-.002l-1.607-1.6c-.017-.017-.04-.024-.058-.038a.507.507 0 0 0-.087-.058.515.515 0 0 0-.093-.033.507.507 0 0 0-.103-.02.5.5 0 0 0-.095.005.53.53 0 0 0-.104.02.477.477 0 0 0-.094.045c-.02.01-.042.015-.06.03L4.23 23.485l-.9-.897 2.398-2.387 4.36 4.29-.927.918zm6.82-7.016c-.016-.002-.03.004-.046.003a.556.556 0 0 0-.3.075.492.492 0 0 0-.083.06c-.012.012-.027.018-.04.03l-4.697 5.146-4.328-4.257 2.833-2.817a.534.534 0 0 0-.38-.91v-.002l-2.218.014.028-1.607 3.104.027a6.947 6.947 0 0 0 4.98 2.1c.438 0 .865-.044 1.28-.122.04.032.08.065.13.085l2.41.96.152.758.178.885-3.003-.427zm4.04.178-.313-1.558 1.446-1.08.947 1.257-2.08 1.382zm3.754-2.83-.838.784-.93-1.236.83-.637a.735.735 0 0 1 .543-.143.718.718 0 0 1 .48.284c.216.292.18.7-.086.947z"/>
      <path fill="#2e2f42" style="" d="M13.602 18.544 11.46 16.41a.534.534 0 0 0-.754 0l-2.142 2.134a.537.537 0 0 0 0 .756l2.142 2.133a.536.536 0 0 0 .753 0L13.6 19.3a.535.535 0 0 0 0-.756zm-2.52 1.76L9.697 18.92l1.387-1.38 1.387 1.38-1.387 1.38z"/>
      <path fill="#2e2f42" style="" d="m17.164 5.07-.258 1.037c.07.018 1.738.452 1.738 2.15h1.067c0-2.018-1.665-2.966-2.546-3.186z"/>
      <path fill="#2e2f42" style="" d="M19.71 9.322h-1.066v1.067h1.067V9.32z"/>
    </symbol>
    <symbol id="icon-diagram" viewBox="0 0 32 32">
      <path fill="#4d5ae5" style="" d="M14.925 14.965h1.066v4.798h-1.065v-4.797z"/>
      <path fill="#4d5ae5" style="" d="M19.19 17.097h1.066v2.665H19.19v-2.665z"/>
      <path fill="#4d5ae5" style="" d="M10.66 18.696h1.067v1.066H10.66v-1.066z"/>
      <path fill="#4d5ae5" style="" d="M7.463 18.163H8.53v1.6H7.462v-1.6z"/>
      <path fill="#2e2f42" style="" d="M1.6 28.29h25.586a1.6 1.6 0 0 0 1.6-1.598V24.56a1.6 1.6 0 0 0-1.6-1.6h-.533V9.67L29.68 6.8a1.608 1.608 0 1 0-.745-.763L26.655 8.2V6.97a1.6 1.6 0 0 0-1.6-1.6H3.733a1.6 1.6 0 0 0-1.6 1.6v15.992h-.532a1.6 1.6 0 0 0-1.598 1.6v2.13a1.6 1.6 0 0 0 1.6 1.6zM30.383 4.838a.533.533 0 1 1 0 1.067.533.533 0 0 1 0-1.067zM3.198 6.97c0-.295.24-.534.533-.534h21.323c.294 0 .533.24.533.533v2.238L24.52 10.22V8.036a.533.533 0 0 0-.533-.533H4.797a.533.533 0 0 0-.533.533V21.36c0 .295.24.534.533.534h19.19c.294 0 .533-.24.533-.533v-9.673l1.066-1.01V22.96H3.198V6.97zm4.798 6.93a1.598 1.598 0 1 0 1.107 2.748l1.853.93a.532.532 0 0 0 .636-.123l3.94-4.43 3.87 2.9c.21.156.5.14.687-.04l3.364-3.187v8.13H5.33V8.57h18.124v2.66l-3.77 3.573-3.905-2.926a.533.533 0 0 0-.72.072L11.07 16.44l-1.493-.747c.01-.064.018-.13.02-.193a1.6 1.6 0 0 0-1.6-1.6zm.533 1.598a.533.533 0 1 1-1.068 0 .533.533 0 0 1 1.067 0zm3.197 8.53h5.33v.532c0 .294-.238.533-.532.533H12.26a.533.533 0 0 1-.532-.533v-.533zm-10.66.532c0-.294.238-.533.532-.533h9.06v.533a1.6 1.6 0 0 0 1.6 1.6h4.264a1.6 1.6 0 0 0 1.6-1.6v-.533h9.06c.295 0 .534.24.534.533v2.132c0 .294-.24.533-.533.533H1.598a.533.533 0 0 1-.533-.533V24.56z"/>
    </symbol>
    <symbol id="icon-clock" viewBox="0 0 32 32">
      <path fill="#2e2f42" style="" d="M31.297 15.3C31.295 6.85 24.442 0 15.99 0S.685 6.855.687 15.308c0 6.658 4.307 12.55 10.65 14.576.06.02.123.03.186.03.12 0 .24-.033.342-.095a.637.637 0 0 0 .283-.357l3.864-12.25a1.913 1.913 0 1 0-.84-3.635L10.068 8.47a.637.637 0 0 0-.902.903l5.103 5.11c-.393.798-.17 1.763.535 2.308l-3.683 11.674C3.844 25.784.118 17.71 2.8 10.432S13.552-.572 20.83 2.11c7.28 2.68 11.005 10.753 8.324 18.03-1.31 3.557-4 6.432-7.462 7.974l-.398-1.874a.637.637 0 0 0-1.05-.344l-3.836 3.426a.637.637 0 0 0 .23 1.084l4.9 1.564a.638.638 0 0 0 .82-.74l-.392-1.84a15.255 15.255 0 0 0 9.33-14.088zm-15.305-.636a.638.638 0 1 1 0 1.277.638.638 0 0 1 0-1.276zm2.1 14.864 2.185-1.948.603 2.84-2.787-.892z"/>
      <path fill="#4d5ae5" style="" d="M15.354 3.185V4.46a.638.638 0 1 0 1.276 0V3.185a.638.638 0 0 0-1.276 0z"/>
      <path fill="#4d5ae5" style="" d="M3.876 14.664a.638.638 0 0 0 0 1.276H5.15a.638.638 0 1 0 0-1.276H3.877z"/>
      <path fill="#4d5ae5" style="" d="M28.108 15.94a.638.638 0 1 0 0-1.277h-1.275a.638.638 0 0 0 0 1.276h1.275z"/>
    </symbol>
    <symbol id="icon-antenna" viewBox="0 0 32 32">
      <path fill="#2e2f42" style="" d="m30.773 22.098-8.443-8.505.937-4.615c.242.094.5.144.758.146h.006a2.16 2.16 0 1 0-2.007-1.435l-4.96.604L8.973.16A.534.534 0 0 0 8.594 0a.532.532 0 0 0-.373.156L6.71 1.66a.534.534 0 0 0 0 .754l.813.826a14.943 14.943 0 0 0 2.52 17.663c.042.04.09.074.145.098-.034.18-.05.365-.052.548v6.187h-6.4a2.67 2.67 0 0 0-2.667 2.667v1.067c0 .294.238.532.532.532h24.533c.295 0 .533-.24.533-.533V30.4A2.67 2.67 0 0 0 24 27.735h-6.4v-2.742a15.09 15.09 0 0 0 3.05.32 14.854 14.854 0 0 0 7.04-1.783l.818.823c.1.1.235.16.377.16a.532.532 0 0 0 .373-.155l1.513-1.504a.534.534 0 0 0 0-.754zM23.28 6.233a1.067 1.067 0 1 1 .753 1.822h-.003a1.067 1.067 0 0 1-.747-1.823h-.002zm-1.256 3.505-.598 2.946-1.175-1.182 1.775-1.763zm-.605-.902-1.92 1.91-1.486-1.494 3.405-.415zM24.003 28.8a1.6 1.6 0 0 1 1.6 1.6v.533H2.137V30.4a1.6 1.6 0 0 1 1.6-1.6h20.267zm-7.467-2.133v1.067h-5.333v-1.067h5.333zM11.204 25.6v-4.053c0-1.294 1.196-2.347 2.667-2.347s2.668 1.053 2.668 2.347V25.6h-5.333zm6.4-1.696v-2.357c0-1.882-1.675-3.413-3.733-3.413a3.8 3.8 0 0 0-3.28 1.786A13.87 13.87 0 0 1 8.31 4.033L26.914 22.74a13.818 13.818 0 0 1-9.31 1.164zm11.29-.684L7.835 2.04l.755-.753 7.936 7.98c.004 0 .006.007.01.01l13.115 13.19-.756.753z"/>
      <path fill="#4d5ae5" style="" d="M13.876 20.267h-.005a1.6 1.6 0 1 0-.003 3.2h.005a1.6 1.6 0 1 0 .004-3.2zm.373 1.978a.534.534 0 0 1-.752-.756c.1-.1.232-.154.372-.155a.534.534 0 0 1 .374.91h.005z"/>
    </symbol>
    <symbol id="icon-Checkbox" viewBox="0 0 32 32">
      <path stroke-linejoin="miter" stroke-linecap="butt" stroke-miterlimit="4" stroke-width="2" d="M4 1h24a3 3 0 0 1 3 3v24a3 3 0 0 1-3 3H4a3 3 0 0 1-3-3V4a3 3 0 0 1 3-3z"/>
    </symbol>
    <symbol id="icon-email-black" viewBox="0 0 24 32">
      <path d="M20 8H4c-1.1 0-1.99.9-1.99 2L2 22c0 1.1.9 2 2 2h16c1.1 0 2-.9 2-2V10c0-1.1-.9-2-2-2zm-.4 4.25-7.07 4.42c-.32.2-.74.2-1.06 0L4.4 12.25a.85.85 0 1 1 .9-1.44L12 15l6.7-4.19a.85.85 0 1 1 .9 1.44z"/>
    </symbol>
    <symbol id="icon-phone-black" viewBox="0 0 24 32">
      <path d="m19.635 18.487-2.45-.28a1.92 1.92 0 0 0-1.583.55l-1.775 1.775a14.514 14.514 0 0 1-6.36-6.36l1.786-1.784a1.92 1.92 0 0 0 .55-1.582l-.28-2.432a1.93 1.93 0 0 0-1.92-1.708h-1.67c-1.09 0-1.996.907-1.93 1.997.512 8.24 7.103 14.82 15.333 15.332 1.09.068 1.997-.84 1.997-1.93v-1.67a1.913 1.913 0 0 0-1.698-1.91z"/>
    </symbol>
    <symbol id="icon-telegram" viewBox="0 0 32 32">
      <path d="m32 2.667-32 15 10.227 3.156L26 8.5 14.002 21.988l.01.003L14 21.99v7.345l5.735-5.576L27 26l5-23.334z"/>
    </symbol>
    <symbol id="icon-person-black" viewBox="0 0 32 32">
      <path d="M16 16c2.947 0 5.333-2.387 5.333-5.333s-2.387-5.333-5.333-5.333c-2.947 0-5.333 2.387-5.333 5.333s2.387 5.333 5.333 5.333zM16 18.667c-3.56 0-10.667 1.787-10.667 5.333v1.333c0 0.733 0.6 1.333 1.333 1.333h18.667c0.733 0 1.333-0.6 1.333-1.333v-1.333c0-3.547-7.107-5.333-10.667-5.333z"></path>
    </symbol>
    <symbol id="icon-Vector" viewBox="0 0 40 32">
      <path d="M33.782 1.020c0.691-0.662 1.611-1.027 2.565-1.020s1.869 0.387 2.55 1.059c0.681 0.672 1.076 1.584 1.101 2.543s-0.321 1.891-0.966 2.598l-19.578 24.617c-0.337 0.365-0.743 0.657-1.195 0.86s-0.939 0.312-1.434 0.322c-0.495 0.009-0.986-0.082-1.445-0.268s-0.876-0.463-1.226-0.815l-12.984-13.054c-0.362-0.339-0.652-0.747-0.853-1.201s-0.309-0.944-0.318-1.441 0.082-0.99 0.267-1.451c0.185-0.461 0.461-0.879 0.81-1.231s0.766-0.628 1.224-0.814 0.949-0.277 1.443-0.269c0.494 0.009 0.981 0.118 1.433 0.32s0.858 0.494 1.195 0.857l10.275 10.325 17.042-21.83c0.031-0.038 0.063-0.074 0.098-0.109h-0.005z"></path>
    </symbol>
    <symbol id="icon-close-black" viewBox="0 0 32 32">
      <path d="M32 3.223l-3.223-3.223-12.777 12.777-12.777-12.777-3.223 3.223 12.777 12.777-12.777 12.777 3.223 3.223 12.777-12.777 12.777 12.777 3.223-3.223-12.777-12.777 12.777-12.777z"></path>
    </symbol>
  </defs>
</svg>